<svg id="Layer_1" data-name="Layer 1" xmlns="http://www.w3.org/2000/svg" viewBox="0 0 170 34"><defs><style>.cls-1{fill:#007bb6;}.cls-2,.cls-3{fill:#fff;}.cls-2{fill-rule:evenodd;}</style></defs><title>Linkedin-SignIn</title><rect class="cls-1" width="170" height="34"/><path class="cls-2" d="M28.77,26V19.32c0-1.33-.19-2.66-1.75-2.66S25,18,25,19.36V26H20.6V14.06H25v1.48c0.63-1.39,2-2,3.7-2s4.47,0.81,4.47,5.49V26h-4.4Zm-12-13.82a2.22,2.22,0,0,1-2.33-2.09A2.22,2.22,0,0,1,16.74,8a2.22,2.22,0,0,1,2.33,2.09,2.22,2.22,0,0,1-2.33,2.09m2,13.82H14.94V14.06h3.77V26Z"/><path class="cls-3" d="M42.62,18.21A2.62,2.62,0,0,0,43,19.5a2.36,2.36,0,0,0,2.13.93,3.65,3.65,0,0,0,1.25-.2,1.43,1.43,0,0,0,1.09-1.41A1.23,1.23,0,0,0,47,17.73a4.57,4.57,0,0,0-1.46-.55l-1.22-.29a5.43,5.43,0,0,1-1.7-.62,2,2,0,0,1-.86-1.75,2.72,2.72,0,0,1,.85-2.06,3.33,3.33,0,0,1,2.4-.81,4.08,4.08,0,0,1,2.42.71,2.58,2.58,0,0,1,1,2.26H47.22a2.41,2.41,0,0,0-.39-1.15A2.21,2.21,0,0,0,45,12.75a2.12,2.12,0,0,0-1.54.47,1.5,1.5,0,0,0-.47,1.09,1.07,1.07,0,0,0,.55,1,8,8,0,0,0,1.64.51l1.27,0.3a3.82,3.82,0,0,1,1.42.59,2.24,2.24,0,0,1,.86,1.9,2.39,2.39,0,0,1-1.1,2.22,4.82,4.82,0,0,1-2.55.67,3.76,3.76,0,0,1-2.66-.89,3,3,0,0,1-.94-2.39h1.19Z"/><path class="cls-3" d="M50.31,11.9h1.16v1.29H50.31V11.9Zm0,2.56h1.16v6.77H50.31V14.46Z"/><path class="cls-3" d="M57,14.7a3.13,3.13,0,0,1,.66.65V14.49h1.05v6.18a4.58,4.58,0,0,1-.38,2,2.72,2.72,0,0,1-2.68,1.38,3.28,3.28,0,0,1-1.84-.49A1.92,1.92,0,0,1,53,22.07h1.16a1.29,1.29,0,0,0,.33.7,2.07,2.07,0,0,0,2.92-.55,5.24,5.24,0,0,0,.22-1.95,2.24,2.24,0,0,1-.82.77,2.94,2.94,0,0,1-3.2-.53,3.46,3.46,0,0,1-.83-2.59,3.94,3.94,0,0,1,.83-2.67,2.57,2.57,0,0,1,2-1A2.46,2.46,0,0,1,57,14.7Zm0.14,1.23a1.65,1.65,0,0,0-1.32-.61,1.63,1.63,0,0,0-1.64,1.13A4.46,4.46,0,0,0,53.93,18a2.82,2.82,0,0,0,.46,1.75,1.5,1.5,0,0,0,1.25.6,1.75,1.75,0,0,0,1.72-1.11,3.59,3.59,0,0,0,.28-1.47A2.84,2.84,0,0,0,57.12,15.92Z"/><path class="cls-3" d="M60.43,14.42h1.09v1a3,3,0,0,1,1-.86,2.73,2.73,0,0,1,1.2-.26,2,2,0,0,1,2,1A3.58,3.58,0,0,1,66,16.86v4.36H64.81V16.94a2.32,2.32,0,0,0-.18-1,1.11,1.11,0,0,0-1.1-.63,2.25,2.25,0,0,0-.67.08,1.72,1.72,0,0,0-.83.56,1.67,1.67,0,0,0-.37.7,4.64,4.64,0,0,0-.09,1v3.56H60.43v-6.8Z"/><path class="cls-3" d="M71.27,11.9h1.16v1.29H71.27V11.9Zm0,2.56h1.16v6.77H71.27V14.46Z"/><path class="cls-3" d="M74.16,14.42h1.09v1a3,3,0,0,1,1-.86,2.73,2.73,0,0,1,1.2-.26,2,2,0,0,1,2,1,3.58,3.58,0,0,1,.28,1.58v4.36H78.54V16.94a2.32,2.32,0,0,0-.18-1,1.11,1.11,0,0,0-1.1-.63,2.25,2.25,0,0,0-.67.08,1.72,1.72,0,0,0-.83.56,1.67,1.67,0,0,0-.37.7,4.64,4.64,0,0,0-.09,1v3.56H74.16v-6.8Z"/><path class="cls-3" d="M85.54,14.42l1.31,5.36,1.33-5.36h1.28l1.33,5.33,1.39-5.33h1.14l-2,6.8H90.16L88.77,16l-1.34,5.26H86.25l-2-6.8h1.25Z"/><path class="cls-3" d="M94.39,11.9h1.16v1.29H94.39V11.9Zm0,2.56h1.16v6.77H94.39V14.46Z"/><path class="cls-3" d="M97.51,12.53h1.16v1.9h1.08v0.93H98.67v4.44a0.48,0.48,0,0,0,.24.48,1,1,0,0,0,.44.07h0.18l0.22,0v0.91a2.56,2.56,0,0,1-.41.08l-0.46,0a1.24,1.24,0,0,1-1.09-.41,1.82,1.82,0,0,1-.29-1.06v-4.5H96.59V14.42h0.92v-1.9Z"/><path class="cls-3" d="M100.89,11.87H102v3.48a3.27,3.27,0,0,1,.73-0.72,2.46,2.46,0,0,1,1.38-.36,2,2,0,0,1,2,1,3.53,3.53,0,0,1,.29,1.57v4.36h-1.17V16.94a2.4,2.4,0,0,0-.19-1.1,1.22,1.22,0,0,0-1.17-.56,2,2,0,0,0-1.29.49,2.35,2.35,0,0,0-.58,1.85v3.61h-1.14V11.87Z"/><path class="cls-3" d="M111.89,11.9h1.26v8.21h4.68v1.11h-5.94V11.9Z"/><path class="cls-3" d="M119,11.9h1.16v1.29H119V11.9Zm0,2.56h1.16v6.77H119V14.46Z"/><path class="cls-3" d="M121.85,14.42h1.09v1a3,3,0,0,1,1-.86,2.73,2.73,0,0,1,1.2-.26,2,2,0,0,1,2,1,3.58,3.58,0,0,1,.28,1.58v4.36h-1.16V16.94a2.32,2.32,0,0,0-.18-1,1.11,1.11,0,0,0-1.1-.63,2.25,2.25,0,0,0-.67.08,1.72,1.72,0,0,0-.83.56,1.67,1.67,0,0,0-.37.7,4.64,4.64,0,0,0-.09,1v3.56h-1.14v-6.8Z"/><path class="cls-3" d="M129.06,11.9h1.1v5.41l2.93-2.89h1.46L131.93,17l2.76,4.27h-1.46l-2.14-3.46-0.94.91v2.55h-1.1V11.9Z"/><path class="cls-3" d="M139.78,14.61a2.57,2.57,0,0,1,1,.88,3,3,0,0,1,.45,1.2,7.88,7.88,0,0,1,.1,1.5h-4.95a2.94,2.94,0,0,0,.49,1.66,1.62,1.62,0,0,0,1.4.63,1.81,1.81,0,0,0,1.42-.59,2,2,0,0,0,.42-0.8h1.12a2.37,2.37,0,0,1-.29.83,3,3,0,0,1-.56.75,2.64,2.64,0,0,1-1.28.69,3.84,3.84,0,0,1-.93.1,2.84,2.84,0,0,1-2.14-.92A3.61,3.61,0,0,1,135.2,18a3.92,3.92,0,0,1,.88-2.66,2.91,2.91,0,0,1,2.31-1A3.07,3.07,0,0,1,139.78,14.61Zm0.41,2.67a3,3,0,0,0-.32-1.19,1.64,1.64,0,0,0-1.55-.83,1.71,1.71,0,0,0-1.31.57,2.15,2.15,0,0,0-.56,1.44h3.75Z"/><path class="cls-3" d="M146.55,14.63a3.06,3.06,0,0,1,.69.67V11.87h1.1v9.36h-1V20.28a2.47,2.47,0,0,1-.94.91,2.69,2.69,0,0,1-1.25.28,2.52,2.52,0,0,1-2-1,3.75,3.75,0,0,1-.83-2.54,4.4,4.4,0,0,1,.76-2.57,2.47,2.47,0,0,1,2.16-1.09A2.4,2.4,0,0,1,146.55,14.63ZM144,19.73a1.61,1.61,0,0,0,1.48.74,1.55,1.55,0,0,0,1.3-.68,3.24,3.24,0,0,0,.51-2,2.91,2.91,0,0,0-.52-1.91,1.63,1.63,0,0,0-1.29-.62,1.71,1.71,0,0,0-1.39.66,3,3,0,0,0-.53,1.94A3.38,3.38,0,0,0,144,19.73Z"/><path class="cls-3" d="M150.48,11.9h1.28v9.32h-1.28V11.9Z"/><path class="cls-3" d="M153.66,14.42h1.09v1a3,3,0,0,1,1-.86,2.73,2.73,0,0,1,1.2-.26,2,2,0,0,1,2,1,3.58,3.58,0,0,1,.28,1.58v4.36H158V16.94a2.32,2.32,0,0,0-.18-1,1.11,1.11,0,0,0-1.1-.63,2.25,2.25,0,0,0-.67.08,1.72,1.72,0,0,0-.83.56,1.67,1.67,0,0,0-.37.7,4.64,4.64,0,0,0-.09,1v3.56h-1.14v-6.8Z"/></svg>