<?xml version="1.0" encoding="utf-8"?>
<!-- Generator: Adobe Illustrator 19.2.1, SVG Export Plug-In . SVG Version: 6.00 Build 0)  -->
<svg version="1.1" id="Layer_1" xmlns="http://www.w3.org/2000/svg" xmlns:xlink="http://www.w3.org/1999/xlink" x="0px" y="0px"
	 viewBox="0 0 170 34" style="enable-background:new 0 0 170 34;" xml:space="preserve">
<style type="text/css">
	.st0{fill:#3B5998;}
	.st1{fill:#FFFFFF;}
	.st2{fill-rule:evenodd;clip-rule:evenodd;fill:#FFFFFF;}
	.st3{fill:#2C4372;}
	.st4{fill-rule:evenodd;clip-rule:evenodd;fill:#FF6600;}
	.st5{fill-rule:evenodd;clip-rule:evenodd;fill:#BF4D00;}
	.st6{fill-rule:evenodd;clip-rule:evenodd;fill:#007BB6;}
	.st7{fill-rule:evenodd;clip-rule:evenodd;fill:#005C89;}
	.st8{fill-rule:evenodd;clip-rule:evenodd;fill:#E60278;}
	.st9{fill:#0D3E88;}
	.st10{fill-rule:evenodd;clip-rule:evenodd;fill:#AD025A;}
</style>
<rect class="st0" width="170" height="34"/>
<g>
	<path class="st1" d="M35.3,17.7c0,0.5,0.1,1,0.4,1.3c0.4,0.6,1.1,0.9,2.1,0.9c0.5,0,0.9-0.1,1.2-0.2c0.7-0.3,1.1-0.7,1.1-1.4
		c0-0.5-0.2-0.9-0.5-1.1c-0.3-0.2-0.8-0.4-1.5-0.6L37,16.4c-0.8-0.2-1.4-0.4-1.7-0.6c-0.6-0.4-0.9-1-0.9-1.7c0-0.8,0.3-1.5,0.8-2.1
		s1.4-0.8,2.4-0.8c1,0,1.8,0.2,2.4,0.7c0.7,0.5,1,1.2,1,2.3h-1.2c-0.1-0.5-0.2-0.9-0.4-1.1c-0.4-0.5-1-0.7-1.9-0.7
		c-0.7,0-1.2,0.2-1.5,0.5c-0.3,0.3-0.5,0.7-0.5,1.1c0,0.5,0.2,0.8,0.6,1c0.2,0.1,0.8,0.3,1.6,0.5l1.3,0.3c0.6,0.1,1.1,0.3,1.4,0.6
		c0.6,0.4,0.9,1.1,0.9,1.9c0,1-0.4,1.8-1.1,2.2c-0.7,0.4-1.6,0.7-2.6,0.7c-1.1,0-2-0.3-2.7-0.9c-0.6-0.6-1-1.4-0.9-2.4H35.3z"/>
	<path class="st1" d="M43,11.4h1.2v1.3H43V11.4z M43,14h1.2v6.8H43V14z"/>
	<path class="st1" d="M49.7,14.2c0.2,0.1,0.4,0.4,0.7,0.6V14h1.1v6.2c0,0.9-0.1,1.5-0.4,2c-0.5,0.9-1.4,1.4-2.7,1.4
		c-0.7,0-1.3-0.2-1.8-0.5c-0.5-0.3-0.8-0.8-0.8-1.5h1.2c0.1,0.3,0.2,0.5,0.3,0.7c0.3,0.3,0.7,0.4,1.2,0.4c0.9,0,1.4-0.3,1.7-0.9
		c0.2-0.4,0.2-1,0.2-1.9c-0.2,0.3-0.5,0.6-0.8,0.8c-0.3,0.2-0.7,0.3-1.3,0.3c-0.7,0-1.4-0.3-1.9-0.8c-0.6-0.5-0.8-1.4-0.8-2.6
		c0-1.1,0.3-2,0.8-2.7s1.2-1,2-1C48.8,13.8,49.3,13.9,49.7,14.2z M49.8,15.4c-0.3-0.4-0.8-0.6-1.3-0.6c-0.8,0-1.3,0.4-1.6,1.1
		c-0.2,0.4-0.2,0.9-0.2,1.6c0,0.8,0.2,1.3,0.5,1.7c0.3,0.4,0.7,0.6,1.2,0.6c0.8,0,1.4-0.4,1.7-1.1c0.2-0.4,0.3-0.9,0.3-1.5
		C50.3,16.5,50.2,15.8,49.8,15.4z"/>
	<path class="st1" d="M53.1,13.9h1.1v1c0.3-0.4,0.7-0.7,1-0.9s0.8-0.3,1.2-0.3c1,0,1.6,0.3,2,1c0.2,0.4,0.3,0.9,0.3,1.6v4.4h-1.2
		v-4.3c0-0.4-0.1-0.7-0.2-1c-0.2-0.4-0.6-0.6-1.1-0.6c-0.3,0-0.5,0-0.7,0.1c-0.3,0.1-0.6,0.3-0.8,0.6c-0.2,0.2-0.3,0.5-0.4,0.7
		c-0.1,0.2-0.1,0.6-0.1,1v3.6h-1.1V13.9z"/>
	<path class="st1" d="M64,11.4h1.2v1.3H64V11.4z M64,14h1.2v6.8H64V14z"/>
	<path class="st1" d="M66.9,13.9h1.1v1c0.3-0.4,0.7-0.7,1-0.9s0.8-0.3,1.2-0.3c1,0,1.6,0.3,2,1c0.2,0.4,0.3,0.9,0.3,1.6v4.4h-1.2
		v-4.3c0-0.4-0.1-0.7-0.2-1c-0.2-0.4-0.6-0.6-1.1-0.6c-0.3,0-0.5,0-0.7,0.1c-0.3,0.1-0.6,0.3-0.8,0.6c-0.2,0.2-0.3,0.5-0.4,0.7
		c-0.1,0.2-0.1,0.6-0.1,1v3.6h-1.1V13.9z"/>
	<path class="st1" d="M78.2,13.9l1.3,5.4l1.3-5.4h1.3l1.3,5.3l1.4-5.3H86l-2,6.8h-1.2l-1.4-5.3l-1.3,5.3h-1.2l-2-6.8H78.2z"/>
	<path class="st1" d="M87.1,11.4h1.2v1.3h-1.2V11.4z M87.1,14h1.2v6.8h-1.2V14z"/>
	<path class="st1" d="M90.2,12h1.2v1.9h1.1v0.9h-1.1v4.4c0,0.2,0.1,0.4,0.2,0.5c0.1,0,0.2,0.1,0.4,0.1c0.1,0,0.1,0,0.2,0
		c0.1,0,0.1,0,0.2,0v0.9c-0.1,0-0.3,0.1-0.4,0.1c-0.1,0-0.3,0-0.5,0c-0.5,0-0.9-0.1-1.1-0.4c-0.2-0.3-0.3-0.6-0.3-1.1v-4.5h-0.9
		v-0.9h0.9V12z"/>
	<path class="st1" d="M93.6,11.4h1.1v3.5c0.3-0.3,0.5-0.6,0.7-0.7c0.4-0.2,0.8-0.4,1.4-0.4c1,0,1.7,0.3,2,1c0.2,0.4,0.3,0.9,0.3,1.6
		v4.4H98v-4.3c0-0.5-0.1-0.9-0.2-1.1c-0.2-0.4-0.6-0.6-1.2-0.6c-0.5,0-0.9,0.2-1.3,0.5c-0.4,0.3-0.6,0.9-0.6,1.8v3.6h-1.1V11.4z"/>
	<path class="st1" d="M105,11.8c0.3-0.4,0.8-0.6,1.5-0.6c0.1,0,0.1,0,0.2,0s0.2,0,0.3,0v1c-0.1,0-0.2,0-0.3,0c-0.1,0-0.1,0-0.2,0
		c-0.4,0-0.6,0.1-0.6,0.3c-0.1,0.2-0.1,0.6-0.1,1.4h1.1v0.9h-1.1v5.9h-1.1v-5.9h-0.9V14h0.9v-1.1C104.7,12.4,104.8,12.1,105,11.8z"
		/>
	<path class="st1" d="M111.7,16.6c0.3,0,0.4-0.1,0.5-0.3c0-0.1,0.1-0.2,0.1-0.4c0-0.4-0.1-0.7-0.4-0.9c-0.3-0.2-0.7-0.3-1.2-0.3
		c-0.6,0-1,0.2-1.3,0.5c-0.1,0.2-0.2,0.4-0.3,0.8h-1.1c0-0.8,0.3-1.4,0.8-1.8c0.5-0.3,1.1-0.5,1.8-0.5c0.8,0,1.4,0.2,1.9,0.5
		c0.5,0.3,0.7,0.8,0.7,1.4v3.9c0,0.1,0,0.2,0.1,0.3c0,0.1,0.2,0.1,0.3,0.1c0.1,0,0.1,0,0.2,0c0.1,0,0.1,0,0.2,0v0.8
		c-0.2,0.1-0.3,0.1-0.4,0.1c-0.1,0-0.2,0-0.4,0c-0.4,0-0.7-0.1-0.9-0.4c-0.1-0.1-0.2-0.4-0.2-0.6c-0.2,0.3-0.6,0.6-1,0.8
		c-0.4,0.2-0.9,0.3-1.4,0.3c-0.6,0-1.1-0.2-1.5-0.6c-0.4-0.4-0.6-0.9-0.6-1.4c0-0.6,0.2-1.1,0.6-1.5c0.4-0.3,0.9-0.6,1.5-0.6
		L111.7,16.6z M109.3,19.7c0.2,0.2,0.5,0.3,0.9,0.3c0.4,0,0.8-0.1,1.2-0.3c0.6-0.3,1-0.8,1-1.5v-0.9c-0.1,0.1-0.3,0.2-0.5,0.2
		c-0.2,0.1-0.4,0.1-0.6,0.1l-0.7,0.1c-0.4,0.1-0.7,0.1-0.9,0.3c-0.4,0.2-0.5,0.5-0.5,0.9C108.9,19.2,109,19.5,109.3,19.7z"/>
	<path class="st1" d="M119.8,14.3c0.5,0.4,0.8,1,0.9,1.9h-1.1c-0.1-0.4-0.2-0.8-0.5-1c-0.2-0.3-0.6-0.4-1.2-0.4
		c-0.7,0-1.2,0.4-1.6,1.1c-0.2,0.5-0.3,1-0.3,1.7c0,0.7,0.1,1.3,0.4,1.7c0.3,0.5,0.7,0.7,1.4,0.7c0.5,0,0.8-0.1,1.1-0.4
		c0.3-0.3,0.5-0.7,0.6-1.2h1.1c-0.1,0.9-0.4,1.6-1,2c-0.5,0.4-1.2,0.6-1.9,0.6c-0.9,0-1.6-0.3-2.1-1s-0.8-1.5-0.8-2.4
		c0-1.2,0.3-2.1,0.9-2.8s1.3-1,2.2-1C118.7,13.7,119.3,13.9,119.8,14.3z"/>
	<path class="st1" d="M126,14.1c0.5,0.2,0.8,0.5,1,0.9c0.2,0.3,0.4,0.7,0.5,1.2c0.1,0.3,0.1,0.8,0.1,1.5h-4.9c0,0.7,0.2,1.2,0.5,1.7
		c0.3,0.4,0.8,0.6,1.4,0.6c0.6,0,1.1-0.2,1.4-0.6c0.2-0.2,0.3-0.5,0.4-0.8h1.1c0,0.2-0.1,0.5-0.3,0.8s-0.4,0.6-0.6,0.8
		c-0.3,0.3-0.8,0.6-1.3,0.7c-0.3,0.1-0.6,0.1-0.9,0.1c-0.8,0-1.6-0.3-2.1-0.9c-0.6-0.6-0.9-1.5-0.9-2.6c0-1.1,0.3-2,0.9-2.7
		s1.4-1,2.3-1C125.1,13.8,125.5,13.9,126,14.1z M126.4,16.8c0-0.5-0.2-0.9-0.3-1.2c-0.3-0.6-0.8-0.8-1.6-0.8c-0.5,0-1,0.2-1.3,0.6
		c-0.4,0.4-0.5,0.9-0.6,1.4H126.4z"/>
	<path class="st1" d="M128.9,11.4h1.1v3.4c0.3-0.3,0.5-0.6,0.9-0.7c0.3-0.2,0.7-0.3,1.1-0.3c0.8,0,1.5,0.3,2.1,0.9
		c0.5,0.6,0.8,1.4,0.8,2.6c0,1.1-0.3,2-0.8,2.7s-1.2,1.1-2.2,1.1c-0.5,0-1-0.1-1.3-0.4c-0.2-0.1-0.4-0.4-0.7-0.7v0.9h-1.1V11.4z
		 M133.3,19.2c0.3-0.5,0.5-1.1,0.5-1.9c0-0.7-0.2-1.3-0.5-1.8s-0.8-0.7-1.4-0.7c-0.5,0-1,0.2-1.4,0.6s-0.6,1-0.6,1.9
		c0,0.6,0.1,1.2,0.2,1.6c0.3,0.7,0.9,1.1,1.7,1.1C132.5,19.9,133,19.7,133.3,19.2z"/>
	<path class="st1" d="M141.2,14.6c0.6,0.6,0.9,1.4,0.9,2.6c0,1.1-0.3,2-0.8,2.7c-0.5,0.7-1.4,1.1-2.5,1.1c-0.9,0-1.7-0.3-2.2-0.9
		c-0.5-0.6-0.8-1.5-0.8-2.5c0-1.1,0.3-2.1,0.9-2.7c0.6-0.7,1.3-1,2.3-1C139.8,13.7,140.6,14,141.2,14.6z M140.4,19.1
		c0.3-0.6,0.4-1.2,0.4-1.9c0-0.6-0.1-1.1-0.3-1.5c-0.3-0.6-0.9-0.9-1.6-0.9c-0.7,0-1.2,0.3-1.5,0.8s-0.5,1.2-0.5,1.9
		c0,0.7,0.2,1.3,0.5,1.8c0.3,0.5,0.8,0.7,1.5,0.7C139.7,20,140.2,19.7,140.4,19.1z"/>
	<path class="st1" d="M148.4,14.6c0.6,0.6,0.9,1.4,0.9,2.6c0,1.1-0.3,2-0.8,2.7c-0.5,0.7-1.4,1.1-2.5,1.1c-0.9,0-1.7-0.3-2.2-0.9
		c-0.5-0.6-0.8-1.5-0.8-2.5c0-1.1,0.3-2.1,0.9-2.7c0.6-0.7,1.3-1,2.3-1C147.1,13.7,147.8,14,148.4,14.6z M147.7,19.1
		c0.3-0.6,0.4-1.2,0.4-1.9c0-0.6-0.1-1.1-0.3-1.5c-0.3-0.6-0.9-0.9-1.6-0.9c-0.7,0-1.2,0.3-1.5,0.8s-0.5,1.2-0.5,1.9
		c0,0.7,0.2,1.3,0.5,1.8c0.3,0.5,0.8,0.7,1.5,0.7C146.9,20,147.4,19.7,147.7,19.1z"/>
	<path class="st1" d="M150.7,11.4h1.1v5.4l2.9-2.9h1.5l-2.6,2.5l2.8,4.3h-1.5l-2.1-3.5l-0.9,0.9v2.6h-1.1V11.4z"/>
</g>
<path class="st2" d="M22,8.2v2.7c0,0-2.2-0.2-2.7,0.6c-0.3,0.5-0.2,1.5-0.2,2.8h2.9c-0.2,1.2-0.4,1.8-0.6,3.1h-2.4V26h-3.7
	c0-2.5,0-6.1,0-8.6h-1.8v-3.1h1.7c0.1-2.5,0.2-4.2,1.2-5.3C17.4,7.9,18.3,8,22,8"/>
</svg>
